<svg width="164" height="164" viewBox="0 0 164 164" fill="none" xmlns="http://www.w3.org/2000/svg">
<path d="M14.0296 80.7508C11.3466 80.2502 8.76536 82.0218 8.26412 84.7079C7.76289 87.394 9.5315 89.9774 12.2144 90.478C14.8973 90.9787 17.4786 89.207 17.9798 86.5209C18.4811 83.8348 16.7125 81.2515 14.0296 80.7508Z" fill="white"/>
<path d="M17.6507 102.619C16.3266 102.372 15.0526 103.247 14.8053 104.572C14.5579 105.898 15.4307 107.173 16.7548 107.42C18.0789 107.667 19.3529 106.793 19.6003 105.467C19.8476 104.141 18.9748 102.866 17.6507 102.619Z" fill="white"/>
<path d="M27.2421 118.95C25.308 118.589 23.4472 119.866 23.0859 121.802C22.7245 123.739 23.9995 125.601 25.9336 125.962C27.8677 126.323 29.7285 125.045 30.0898 123.109C30.4511 121.173 29.1762 119.31 27.2421 118.95Z" fill="white"/>
<path d="M41.3036 132.226C38.938 131.784 36.6621 133.346 36.2202 135.715C35.7782 138.083 37.3376 140.361 39.7032 140.802C42.0687 141.243 44.3446 139.681 44.7865 137.313C45.2285 134.945 43.6691 132.667 41.3036 132.226Z" fill="white"/>
<path d="M58.2052 143.929C57.0497 143.713 55.938 144.476 55.7221 145.633C55.5062 146.79 56.2679 147.903 57.4234 148.118C58.5789 148.334 59.6906 147.571 59.9065 146.414C60.1224 145.257 59.3607 144.145 58.2052 143.929Z" fill="white"/>
<path d="M77.9408 145.826C75.4413 145.359 73.0366 147.01 72.5697 149.512C72.1027 152.015 73.7503 154.421 76.2498 154.888C78.7492 155.354 81.1539 153.704 81.6209 151.201C82.0878 148.699 80.4402 146.292 77.9408 145.826Z" fill="white"/>
<path d="M97.4733 145.926C95.688 145.593 93.9703 146.772 93.6368 148.559C93.3033 150.347 94.4802 152.066 96.2655 152.399C98.0508 152.732 99.7684 151.553 100.102 149.766C100.436 147.978 99.2586 146.259 97.4733 145.926Z" fill="white"/>
<path d="M115.911 140.185C114.731 139.964 113.596 140.744 113.375 141.925C113.155 143.107 113.933 144.244 115.113 144.464C116.293 144.684 117.429 143.905 117.649 142.723C117.87 141.541 117.092 140.405 115.911 140.185Z" fill="white"/>
<path d="M132.126 127.144C130.296 126.802 128.535 128.01 128.193 129.843C127.852 131.675 129.058 133.437 130.888 133.778C132.718 134.12 134.478 132.911 134.82 131.079C135.162 129.247 133.956 127.485 132.126 127.144Z" fill="white"/>
<path d="M144.65 108.772C141.477 108.18 138.423 110.276 137.83 113.453C137.237 116.631 139.329 119.687 142.503 120.279C145.677 120.872 148.731 118.776 149.324 115.598C149.917 112.421 147.824 109.364 144.65 108.772Z" fill="white"/>
<path d="M151.094 91.5641C148.823 91.1403 146.637 92.6401 146.213 94.9141C145.789 97.1881 147.286 99.3751 149.557 99.799C151.829 100.223 154.014 98.723 154.438 96.449C154.863 94.175 153.365 91.988 151.094 91.5641Z" fill="white"/>
<path d="M151.681 73.6814C150.54 73.4685 149.443 74.2217 149.23 75.3637C149.017 76.5056 149.769 77.6039 150.909 77.8168C152.05 78.0296 153.147 77.2764 153.36 76.1344C153.574 74.9925 152.822 73.8942 151.681 73.6814Z" fill="white"/>
<path d="M146.973 55.1921C146.299 55.0662 145.65 55.5116 145.524 56.1868C145.398 56.8621 145.843 57.5115 146.517 57.6374C147.192 57.7632 147.84 57.3178 147.966 56.6426C148.092 55.9673 147.648 55.3179 146.973 55.1921Z" fill="white"/>
<path d="M137.559 35.8805C135.744 35.5418 133.997 36.7404 133.658 38.5576C133.319 40.3748 134.516 42.1225 136.331 42.4612C138.146 42.7999 139.892 41.6013 140.231 39.7841C140.57 37.9669 139.374 36.2192 137.559 35.8805Z" fill="white"/>
<path d="M122.912 24.2352C122.253 24.1121 121.618 24.5476 121.495 25.208C121.372 25.8683 121.806 26.5034 122.466 26.6265C123.125 26.7496 123.76 26.314 123.883 25.6537C124.006 24.9933 123.572 24.3582 122.912 24.2352Z" fill="white"/>
<path d="M106.151 10.93C103.166 10.3729 100.294 12.3443 99.7358 15.3333C99.178 18.3222 101.146 21.1969 104.132 21.754C107.117 22.3111 109.989 20.3397 110.547 17.3507C111.105 14.3617 109.137 11.4871 106.151 10.93Z" fill="white"/>
<path d="M15.5685 61.8386L11.9963 58.7622L12.3854 57.4227L19.1962 63.3024L18.8136 64.619L16.8099 62.8894L10.4737 64.0257L10.8759 62.6405L15.5728 61.8352L15.5685 61.8386Z" fill="white"/>
<path d="M19.2315 52.9292C19.6379 52.8333 20.0527 52.872 20.4759 53.0452C20.903 53.2188 21.2414 53.4847 21.495 53.8432C21.7486 54.2017 21.8895 54.6222 21.9133 55.1081C21.9372 55.5941 21.8406 56.1059 21.624 56.6396C21.4127 57.162 21.1267 57.5818 20.7724 57.9114C20.4186 58.2372 20.015 58.4473 19.5618 58.5419C19.1124 58.6369 18.643 58.596 18.1609 58.4241L18.6522 57.2218C19.0527 57.3532 19.4237 57.328 19.761 57.1497C20.0983 56.9714 20.361 56.6551 20.5452 56.2003C20.7186 55.7718 20.7509 55.3786 20.6426 55.0167C20.5343 54.6549 20.2965 54.4003 19.9257 54.2487C19.5661 54.1023 19.2234 54.1189 18.9016 54.2989C18.5798 54.4789 18.3296 54.7888 18.1506 55.2324L17.837 56.0027L16.7882 55.5747L17.0901 54.8384C17.2476 54.4474 17.2713 54.0964 17.1621 53.7777C17.0524 53.4629 16.8348 53.2381 16.5087 53.1072C16.1791 52.972 15.8653 52.9761 15.571 53.1199C15.2768 53.2637 15.0464 53.5365 14.8881 53.9353C14.7155 54.356 14.6901 54.7225 14.8036 55.0378C14.9171 55.3531 15.1257 55.5886 15.4265 55.7363L14.93 56.9498C14.5124 56.7615 14.183 56.4849 13.9462 56.1165C13.7094 55.7481 13.5793 55.3366 13.5567 54.8744C13.5341 54.4121 13.6173 53.9499 13.8109 53.4805C14.0102 52.996 14.2738 52.6012 14.6014 52.3C14.9333 51.9953 15.2994 51.8046 15.7083 51.7208C16.1168 51.6408 16.5273 51.6829 16.9467 51.8557C17.3136 52.0069 17.5979 52.2313 17.7961 52.5246C17.9944 52.818 18.1074 53.1725 18.1361 53.5804C18.4675 53.2443 18.8328 53.026 19.2392 52.9301L19.2315 52.9292Z" fill="white"/>
<path d="M21.4409 45.7664L18.5042 44.1483L19.1244 43.0194L26.2847 46.9697L25.6646 48.0986L22.4921 46.3479L20.6161 49.7682L23.7885 51.5189L23.1684 52.6478L16.008 48.6975L16.6282 47.5686L19.5649 49.1867L21.4409 45.7664Z" fill="white"/>
<path d="M31.3244 39.8294L30.5134 40.9487L28.4872 40.3992L26.4615 43.1976L27.6113 44.9612L26.814 46.0623L22.1154 38.6042L22.7963 37.6668L31.3274 39.8376L31.3244 39.8294ZM27.262 40.0418L23.7939 39.1107L25.751 42.1278L27.262 40.0418Z" fill="white"/>
<path d="M33.3402 37.6467L32.4915 38.6124L27.2525 33.9817L25.8872 35.5378L24.9923 34.7498L28.5755 30.6723L29.4704 31.4602L28.105 33.0164L33.3441 37.6471L33.3402 37.6467Z" fill="white"/>
<path d="M33.8936 29.658C34.3137 29.265 34.7595 28.9928 35.2261 28.8487C35.6928 28.7045 36.1523 28.6932 36.5976 28.8099C37.0462 28.931 37.4453 29.18 37.7951 29.5533C38.1446 29.9304 38.3645 30.344 38.4542 30.802C38.5439 31.26 38.5007 31.7149 38.3272 32.1788C38.1542 32.6387 37.8592 33.0693 37.4352 33.4618L35.5313 35.2444L29.951 29.2552L30.8881 28.374L32.9195 30.5546L33.8829 29.6489L33.8936 29.658ZM36.5774 32.623C36.9583 32.2649 37.1682 31.8955 37.2117 31.5075C37.2548 31.1233 37.1258 30.7709 36.8357 30.4594C36.5455 30.1479 36.206 29.9959 35.8165 30.0111C35.427 30.0264 35.0459 30.2116 34.6649 30.5696L33.7416 31.4327L35.654 33.4861L36.5774 32.623Z" fill="white"/>
<path d="M42.1586 23.2446C42.6384 22.9133 43.1236 22.7084 43.6134 22.6376C44.1031 22.5668 44.5519 22.6171 44.9631 22.7929C45.3743 22.9686 45.7139 23.2582 45.9868 23.6542C46.2592 24.0541 46.4079 24.4755 46.4245 24.9214C46.441 25.3673 46.333 25.807 46.0886 26.2393C45.8482 26.6721 45.4839 27.0556 45.0041 27.3869L42.9447 28.8102L38.3121 22.0549L42.1802 19.3845L42.8534 20.3677L40.0426 22.3079L41.1534 23.9295L42.1552 23.2403L42.1586 23.2446ZM44.3237 26.399C44.7398 26.1116 44.999 25.791 45.0941 25.4323C45.1887 25.0775 45.1251 24.7364 44.8994 24.4085C44.6737 24.0807 44.3769 23.8981 44.0094 23.8568C43.6419 23.8156 43.2479 23.9404 42.8318 24.2277L41.83 24.917L43.318 27.0878L44.3198 26.3985L44.3237 26.399Z" fill="white"/>
<path d="M49.7567 23.8847C49.0074 23.8596 48.3143 23.6483 47.6773 23.2507C47.0403 22.8532 46.5453 22.3065 46.1808 21.6094C45.8207 20.9089 45.6591 20.1836 45.7036 19.4381C45.7446 18.6882 45.9746 17.9989 46.3822 17.3688C46.7936 16.7391 47.3428 16.2427 48.0337 15.8801C48.7242 15.5214 49.4441 15.3546 50.193 15.3835C50.9418 15.4125 51.6311 15.6234 52.2643 16.0205C52.8974 16.4176 53.3962 16.9647 53.7607 17.6618C54.1209 18.3623 54.2824 19.0877 54.238 19.8332C54.1931 20.5826 53.9712 21.2689 53.5637 21.899C53.1561 22.5292 52.6069 23.0255 51.9164 23.3843C51.2259 23.743 50.506 23.9098 49.7529 23.8843L49.7567 23.8847ZM52.5056 21.2735C52.7827 20.8291 52.9308 20.3467 52.9474 19.8142C52.9675 19.286 52.8491 18.7698 52.5914 18.2733C52.3341 17.7729 51.9826 17.3799 51.5376 17.0864C51.0926 16.7928 50.6092 16.6325 50.0912 16.6059C49.5732 16.5792 49.0713 16.688 48.5847 16.9399C48.0982 17.1918 47.7185 17.5383 47.4415 17.9826C47.1645 18.427 47.0155 18.9172 46.995 19.4493C46.9784 19.9818 47.0967 20.498 47.354 20.9984C47.6113 21.4987 47.9628 21.8918 48.4044 22.181C48.8459 22.4702 49.3298 22.6266 49.8517 22.6537C50.3736 22.6808 50.8758 22.5682 51.3624 22.3162C51.8451 22.0639 52.2247 21.7175 52.5018 21.2731L52.5056 21.2735Z" fill="white"/>
<path d="M54.7103 12.9234L59.5921 11.1329L62.395 18.8343L61.1898 19.2767L58.7938 12.6976L56.2488 13.6303L57.3826 17.6671C57.6689 18.6776 57.6992 19.4551 57.4809 20.0043C57.2626 20.5535 56.8141 20.955 56.132 21.2047L55.7603 21.3398L55.332 20.1641L55.5402 20.0892C55.9282 19.948 56.1658 19.7153 56.2565 19.3954C56.3472 19.0755 56.3087 18.6154 56.1376 18.0108L54.7064 12.923L54.7103 12.9234Z" fill="white"/>
<path d="M65.5868 12.6341C66.1463 12.5004 66.6652 12.4839 67.1427 12.5925C67.6206 12.6971 68.0231 12.9152 68.355 13.2392C68.6865 13.5672 68.9103 13.9813 69.0304 14.482C69.1506 14.9827 69.137 15.4527 68.9894 15.8958C68.8422 16.3351 68.5803 16.7144 68.2041 17.0298C67.828 17.3452 67.3599 17.5717 66.7966 17.7049L64.2645 18.313L62.3656 10.3397L63.6136 10.0396L64.3061 12.9463L65.5902 12.6384L65.5868 12.6341ZM66.4568 16.5431C66.9643 16.4192 67.3295 16.2009 67.5565 15.8884C67.7801 15.5716 67.8446 15.2056 67.7463 14.7898C67.648 14.3741 67.427 14.0743 67.0829 13.8942C66.7388 13.7142 66.3149 13.6863 65.8075 13.8101L64.5797 14.1047L65.2329 16.838L66.4607 16.5435L66.4568 16.5431Z" fill="white"/>
<path d="M80.8129 15.7682L70.8314 16.6803L70.0939 8.5151L71.3722 8.39911L72.0016 15.3617L75.0728 15.0813L74.4434 8.11875L75.7217 8.00276L76.3511 14.9653L79.4223 14.685L78.7929 7.72241L80.0711 7.60642L80.8086 15.7716L80.8129 15.7682Z" fill="white"/>
<path d="M84.1688 12.3605L84.0499 14.7833L87.5018 14.9504L87.4413 16.1538L82.704 15.9212L83.1055 7.73045L87.7258 7.9578L87.6666 9.14959L84.3316 8.98779L84.2259 11.1528L87.444 11.3093L87.3834 12.5127L84.1654 12.3562L84.1688 12.3605Z" fill="white"/>
</svg>
