<svg width="199" height="30" viewBox="0 0 199 30" fill="none" xmlns="http://www.w3.org/2000/svg">
<g clip-path="url(#clip0_2084_477)">
<path d="M24.9861 10.0177C22.6737 6.0362 18.3488 3.36409 13.3923 3.36409C12.675 3.36409 11.9792 3.41732 11.294 3.52378L7.7506 0L2.78337 8.54862L6.74431 12.4876C8.13599 10.3052 10.5982 8.8467 13.3923 8.8467C16.8608 8.8467 19.8047 11.0823 20.8538 14.1803H0.235516C0.085642 14.9894 0 15.8197 0 16.682C0 24.0383 5.99494 30 13.3923 30C16.4647 30 19.3016 28.9674 21.5604 27.2321L23.7228 29.3825H26.7845V19.0454C26.7845 15.4045 26.6347 12.8389 24.9968 10.0177H24.9861ZM13.3923 24.5067C9.92377 24.5067 6.97983 22.2711 5.93071 19.1732H20.8538C19.8047 22.2711 16.8608 24.5067 13.3923 24.5067Z" fill="#D0B787"/>
<path d="M49.2549 24.113L48.2272 21.2067H42.6283L41.622 24.113H37.8217L43.5061 9.24072H47.4136L53.1195 24.113H49.2549ZM47.2851 18.0981L45.4438 12.9348L43.6025 18.0981H47.2744H47.2851Z" fill="#D0B787"/>
<path d="M57.5943 9.24072H68.2353V24.113H64.4992V12.4451H60.9772L60.4419 18.7155C60.1208 22.6438 58.4507 24.2833 55.3141 24.2833H54.2222V20.866H54.7146C56.0635 20.866 56.6844 20.0569 56.8342 18.2471L57.605 9.24072H57.5943Z" fill="#D0B787"/>
<path d="M77.5381 14.1059C80.8246 14.1059 83.2012 16.0008 83.2012 19.1201C83.2012 22.2393 80.8246 24.113 77.5381 24.113H71.7037V9.24072H75.4399V14.1059H77.5381ZM77.1741 20.9512C78.5658 20.9512 79.4008 20.2272 79.4008 19.1201C79.4008 18.0129 78.5658 17.289 77.1741 17.289H75.4399V20.9405H77.1741V20.9512Z" fill="#D0B787"/>
<path d="M103.316 24.113H99.6445L98.4883 15.8092L94.902 24.113H92.9323L89.346 15.7666L88.1684 24.113H84.5179L86.7018 9.24072H89.9241L93.9386 18.5878L97.953 9.24072H101.133L103.316 24.113Z" fill="#D0B787"/>
<path d="M109.643 20.9512H115.777V24.113H105.907V9.24072H115.563V12.4025H109.643V14.9788H115.349V18.0555H109.643V20.9405V20.9512Z" fill="#D0B787"/>
<path d="M120.884 24.113V12.5942H117.212V9.24072H128.26V12.5942H124.631V24.113H120.894H120.884Z" fill="#D0B787"/>
<path d="M136.096 14.1059C139.382 14.1059 141.759 16.0008 141.759 19.1201C141.759 22.2393 139.382 24.113 136.096 24.113H130.261V9.24072H133.998V14.1059H136.096ZM135.732 20.9512C137.124 20.9512 137.959 20.2272 137.959 19.1201C137.959 18.0129 137.124 17.289 135.732 17.289H133.998V20.9405H135.732V20.9512Z" fill="#D0B787"/>
<path d="M147.583 20.9512H153.717V24.113H143.847V9.24072H153.503V12.4025H147.583V14.9788H153.289V18.0555H147.583V20.9405V20.9512Z" fill="#D0B787"/>
<path d="M168.062 19.6311C168.062 22.1754 166.135 24.113 162.056 24.113H156.586V9.24072H161.821C165.364 9.24072 167.42 10.7737 167.42 13.2329C167.42 14.5743 166.585 15.5963 165.514 16.1392C167.077 16.7141 168.062 17.9703 168.062 19.6204V19.6311ZM160.322 12.1257V15.245H161.714C162.998 15.245 163.705 14.5849 163.705 13.6694C163.705 12.7539 162.998 12.1151 161.714 12.1151H160.322V12.1257ZM162.142 21.2173C163.512 21.2173 164.24 20.4721 164.24 19.5353C164.24 18.5984 163.512 17.8532 162.142 17.8532H160.322V21.2067H162.142V21.2173Z" fill="#D0B787"/>
<path d="M184.441 20.0994C183.135 22.8141 180.619 24.3896 177.515 24.3896C173.265 24.3896 169.582 21.3769 169.582 16.6714C169.582 11.9659 173.211 8.95316 177.343 8.95316C178.093 8.95316 179.099 8.97446 180.758 9.61321L182.428 8.63379L184.227 14.1164L181.625 15.1597C181.176 13.9887 180.319 12.3598 177.761 12.3598C175.202 12.3598 173.404 14.1909 173.404 16.6714C173.404 19.1519 175.181 20.983 177.568 20.983C179.431 20.983 180.769 19.9397 181.625 18.428L184.441 20.0887V20.0994Z" fill="#D0B787"/>
<path d="M194.729 15.7453C196.827 16.959 198.144 19.4394 199 24.113H195.135C194.493 19.1627 192.952 18.2684 190.222 18.2471V24.113H186.486V9.24072H190.222V14.7872C190.693 14.7872 191.142 14.8085 191.592 14.8511L194.879 9.24072H198.722L194.729 15.7453Z" fill="#D0B787"/>
</g>
<defs>
<clipPath id="clip0_2084_477">
<rect width="199" height="30" fill="white"/>
</clipPath>
</defs>
</svg>
