<svg width="27" height="30" viewBox="0 0 27 30" fill="none" xmlns="http://www.w3.org/2000/svg">
<path d="M24.9861 10.0177C22.6737 6.0362 18.3488 3.36409 13.3923 3.36409C12.675 3.36409 11.9792 3.41732 11.294 3.52378L7.7506 0L2.78337 8.54862L6.74431 12.4876C8.13599 10.3052 10.5982 8.8467 13.3923 8.8467C16.8608 8.8467 19.8047 11.0823 20.8538 14.1803H0.235516C0.085642 14.9894 0 15.8197 0 16.682C0 24.0383 5.99494 30 13.3923 30C16.4647 30 19.3016 28.9674 21.5604 27.2321L23.7228 29.3825H26.7845V19.0454C26.7845 15.4045 26.6347 12.8389 24.9968 10.0177H24.9861ZM13.3923 24.5067C9.92377 24.5067 6.97983 22.2711 5.93071 19.1732H20.8538C19.8047 22.2711 16.8608 24.5067 13.3923 24.5067Z" fill="#D0B787"/>
</svg>
