<svg width="94" height="20" viewBox="0 0 94 20" fill="none" xmlns="http://www.w3.org/2000/svg">
<path d="M18.3389 10.5801C18.3389 15.9201 14.0876 19.4357 9.21102 19.4357C3.27582 19.4357 -0.800469 14.7038 0.133159 9.02221H13.8791C13.2956 6.82289 11.4617 5.365 8.99428 5.365C6.52683 5.365 5.01803 6.8812 4.23445 7.78093L1.86704 5.46498L5.43483 0L7.46046 1.87442C8.094 1.77445 8.72753 1.72447 9.36106 1.72447C14.1959 1.72447 18.3472 5.24005 18.3472 10.5801H18.3389ZM13.8708 12.1629H4.50119C5.0597 14.3122 6.71857 15.7951 9.18601 15.7951C11.4784 15.7951 13.2873 14.3539 13.8708 12.1629Z" fill="white"/>
<path d="M23.0237 2.0415H35.1775V19.1196H30.9095V5.7237H26.8832L26.2747 12.9215C26.083 15.1458 25.5078 16.7703 24.5575 17.7866C23.6072 18.803 22.2234 19.3112 20.4228 19.3112H19.1808V15.3874H19.7393C20.5062 15.3874 21.0731 15.1458 21.4482 14.6709C21.8233 14.1961 22.0567 13.4297 22.1567 12.3883L23.032 2.0415H23.0237Z" fill="white"/>
<path d="M56.6844 2.0415L59.1768 19.1196H54.9755L53.6584 9.58084L49.5571 19.1196H47.3148L43.2135 9.53085L41.8714 19.1196H37.6951L40.1875 2.0415H43.872L48.4568 12.7715L53.0499 2.0415H56.6844Z" fill="white"/>
<path d="M79.3831 10.5801C79.3831 15.9201 75.1317 19.4357 70.2552 19.4357C64.32 19.4357 60.2437 14.7038 61.1773 9.02221H74.9234C74.3398 6.82289 72.5059 5.365 70.0385 5.365C67.571 5.365 66.0622 6.8812 65.2786 7.78093L62.9112 5.46498L66.479 0L68.5047 1.87442C69.1382 1.77445 69.7717 1.72447 70.4053 1.72447C75.2401 1.72447 79.3914 5.24005 79.3914 10.5801H79.3831ZM74.915 12.1629H65.5454C66.1039 14.3122 67.7628 15.7951 70.2302 15.7951C72.5226 15.7951 74.3315 14.3539 74.915 12.1629Z" fill="white"/>
<path d="M88.9027 19.1196H84.6347V5.89865H80.4333V2.0415H93.054V5.89865H88.9027V19.1196Z" fill="white"/>
</svg>
