<svg width="33" height="33" viewBox="0 0 33 33" fill="none" xmlns="http://www.w3.org/2000/svg">
<circle cx="16.5" cy="16.5" r="16.5" fill="url(#paint0_linear_1938_13976)"/>
<path d="M22.1271 13.6749C21.0048 11.8169 18.9057 10.5699 16.5 10.5699C16.1519 10.5699 15.8141 10.5947 15.4816 10.6444L13.7618 9L11.3509 12.9894L13.2734 14.8275C13.9488 13.8091 15.1439 13.1285 16.5 13.1285C18.1835 13.1285 19.6123 14.1718 20.1215 15.6175H10.1143C10.0416 15.995 10 16.3825 10 16.785C10 20.2179 12.9097 23 16.5 23C17.9912 23 19.3681 22.5181 20.4644 21.7083L21.514 22.7119H23V17.8879C23 16.1888 22.9273 14.9915 22.1323 13.6749H22.1271ZM16.5 20.4365C14.8165 20.4365 13.3877 19.3932 12.8785 17.9475H20.1215C19.6123 19.3932 18.1835 20.4365 16.5 20.4365Z" fill="white"/>
<defs>
<linearGradient id="paint0_linear_1938_13976" x1="36.177" y1="-2.7757" x2="2.04586" y2="31.4032" gradientUnits="userSpaceOnUse">
<stop stop-color="#CCB88D"/>
<stop offset="1" stop-color="#B09C70"/>
</linearGradient>
</defs>
</svg>
