<svg width="664" height="375" viewBox="0 0 664 375" fill="none" xmlns="http://www.w3.org/2000/svg">
<g opacity="0.2">
<mask id="mask0_1840_114358" style="mask-type:alpha" maskUnits="userSpaceOnUse" x="0" y="0" width="664" height="375">
<rect x="1" y="1" width="662" height="373" rx="19" fill="white" stroke="#2E2E2E" stroke-width="2"/>
</mask>
<g mask="url(#mask0_1840_114358)">
<g opacity="0.3">
<path d="M285.588 366.88C288.323 366.88 290.541 364.58 290.541 361.743C290.541 358.906 288.323 356.607 285.588 356.607C282.852 356.607 280.634 358.906 280.634 361.743C280.634 364.58 282.852 366.88 285.588 366.88Z" fill="#020202"/>
<path d="M274.113 348.484C275.407 348.484 276.455 347.396 276.455 346.055C276.455 344.714 275.407 343.626 274.113 343.626C272.819 343.626 271.771 344.714 271.771 346.055C271.771 347.396 272.819 348.484 274.113 348.484Z" fill="#020202"/>
<path d="M262.1 332.484C263.062 332.484 263.841 331.676 263.841 330.679C263.841 329.682 263.062 328.874 262.1 328.874C261.139 328.874 260.359 329.682 260.359 330.679C260.359 331.676 261.139 332.484 262.1 332.484Z" fill="#020202"/>
<path d="M248.79 317.764C249.253 317.764 249.629 317.375 249.629 316.894C249.629 316.414 249.253 316.025 248.79 316.025C248.327 316.025 247.951 316.414 247.951 316.894C247.951 317.375 248.327 317.764 248.79 317.764Z" fill="#020202"/>
<path d="M231.951 308.263C232.318 308.263 232.616 307.954 232.616 307.573C232.616 307.193 232.318 306.884 231.951 306.884C231.584 306.884 231.286 307.193 231.286 307.573C231.286 307.954 231.584 308.263 231.951 308.263Z" fill="#020202"/>
<path d="M215.127 299.729C215.922 299.729 216.567 299.061 216.567 298.236C216.567 297.411 215.922 296.743 215.127 296.743C214.331 296.743 213.687 297.411 213.687 298.236C213.687 299.061 214.331 299.729 215.127 299.729Z" fill="#020202"/>
<path d="M196.958 296.579C198.627 296.579 199.98 295.175 199.98 293.444C199.98 291.713 198.627 290.31 196.958 290.31C195.288 290.31 193.935 291.713 193.935 293.444C193.935 295.175 195.288 296.579 196.958 296.579Z" fill="#020202"/>
<path d="M177.95 293.937C179.235 293.937 180.276 292.857 180.276 291.524C180.276 290.192 179.235 289.112 177.95 289.112C176.665 289.112 175.623 290.192 175.623 291.524C175.623 292.857 176.665 293.937 177.95 293.937Z" fill="#020202"/>
<path d="M158.99 296.021C162.189 296.021 164.782 293.332 164.782 290.015C164.782 286.698 162.189 284.009 158.99 284.009C155.791 284.009 153.197 286.698 153.197 290.015C153.197 293.332 155.791 296.021 158.99 296.021Z" fill="#020202"/>
<path d="M140.678 300.96C143.519 300.96 145.822 298.572 145.822 295.627C145.822 292.681 143.519 290.294 140.678 290.294C137.837 290.294 135.534 292.681 135.534 295.627C135.534 298.572 137.837 300.96 140.678 300.96Z" fill="#020202"/>
<path d="M122.367 305.965C124.893 305.965 126.941 303.842 126.941 301.223C126.941 298.603 124.893 296.48 122.367 296.48C119.841 296.48 117.793 298.603 117.793 301.223C117.793 303.842 119.841 305.965 122.367 305.965Z" fill="#020202"/>
<path d="M105.78 314.663C108.14 314.663 110.053 312.679 110.053 310.232C110.053 307.785 108.14 305.801 105.78 305.801C103.42 305.801 101.507 307.785 101.507 310.232C101.507 312.679 103.42 314.663 105.78 314.663Z" fill="#020202"/>
<path d="M90.951 325.395C92.3845 325.395 93.5466 324.19 93.5466 322.704C93.5466 321.217 92.3845 320.012 90.951 320.012C89.5175 320.012 88.3555 321.217 88.3555 322.704C88.3555 324.19 89.5175 325.395 90.951 325.395Z" fill="#020202"/>
<path d="M76.105 338.703C77.9931 338.703 79.5237 337.116 79.5237 335.159C79.5237 333.201 77.9931 331.614 76.105 331.614C74.217 331.614 72.6865 333.201 72.6865 335.159C72.6865 337.116 74.217 338.703 76.105 338.703Z" fill="#020202"/>
<path d="M66.1985 352.734C66.6705 352.734 67.0531 352.337 67.0531 351.848C67.0531 351.359 66.6705 350.962 66.1985 350.962C65.7264 350.962 65.3438 351.359 65.3438 351.848C65.3438 352.337 65.7264 352.734 66.1985 352.734Z" fill="#020202"/>
<path d="M57.1928 371.868C58.5651 371.868 59.6775 370.715 59.6775 369.292C59.6775 367.869 58.5651 366.716 57.1928 366.716C55.8205 366.716 54.708 367.869 54.708 369.292C54.708 370.715 55.8205 371.868 57.1928 371.868Z" fill="#020202"/>
<path d="M339.461 366.732C341.76 366.732 343.624 364.8 343.624 362.416C343.624 360.032 341.76 358.1 339.461 358.1C337.162 358.1 335.299 360.032 335.299 362.416C335.299 364.8 337.162 366.732 339.461 366.732Z" fill="#020202"/>
<path d="M331.816 344.693C334.141 344.693 336.026 342.739 336.026 340.328C336.026 337.917 334.141 335.963 331.816 335.963C329.491 335.963 327.606 337.917 327.606 340.328C327.606 342.739 329.491 344.693 331.816 344.693Z" fill="#020202"/>
<path d="M320.2 323.245C321.651 323.245 322.827 322.025 322.827 320.521C322.827 319.016 321.651 317.797 320.2 317.797C318.749 317.797 317.572 319.016 317.572 320.521C317.572 322.025 318.749 323.245 320.2 323.245Z" fill="#020202"/>
<path d="M306.288 308.23C309.592 308.23 312.271 305.453 312.271 302.027C312.271 298.601 309.592 295.824 306.288 295.824C302.984 295.824 300.306 298.601 300.306 302.027C300.306 305.453 302.984 308.23 306.288 308.23Z" fill="#020202"/>
<path d="M291.87 288.275C294.099 288.275 295.906 286.402 295.906 284.09C295.906 281.779 294.099 279.906 291.87 279.906C289.641 279.906 287.834 281.779 287.834 284.09C287.834 286.402 289.641 288.275 291.87 288.275Z" fill="#020202"/>
<path d="M273.052 272.062C273.586 272.062 274.018 271.614 274.018 271.061C274.018 270.508 273.586 270.06 273.052 270.06C272.519 270.06 272.087 270.508 272.087 271.061C272.087 271.614 272.519 272.062 273.052 272.062Z" fill="#020202"/>
<path d="M254.251 260.706C255.675 260.706 256.83 259.508 256.83 258.031C256.83 256.554 255.675 255.356 254.251 255.356C252.826 255.356 251.671 256.554 251.671 258.031C251.671 259.508 252.826 260.706 254.251 260.706Z" fill="#020202"/>
<path d="M233.723 253.551C236.223 253.551 238.249 251.45 238.249 248.858C238.249 246.266 236.223 244.165 233.723 244.165C231.223 244.165 229.196 246.266 229.196 248.858C229.196 251.45 231.223 253.551 233.723 253.551Z" fill="#020202"/>
<path d="M211.93 246.167C213.844 246.167 215.396 244.558 215.396 242.573C215.396 240.588 213.844 238.979 211.93 238.979C210.016 238.979 208.464 240.588 208.464 242.573C208.464 244.558 210.016 246.167 211.93 246.167Z" fill="#020202"/>
<path d="M190.026 239.307C191.145 239.307 192.052 238.367 192.052 237.207C192.052 236.047 191.145 235.106 190.026 235.106C188.907 235.106 188 236.047 188 237.207C188 238.367 188.907 239.307 190.026 239.307Z" fill="#020202"/>
<path d="M167.41 242.425C169.726 242.425 171.604 240.478 171.604 238.077C171.604 235.675 169.726 233.728 167.41 233.728C165.094 233.728 163.216 235.675 163.216 238.077C163.216 240.478 165.094 242.425 167.41 242.425Z" fill="#020202"/>
<path d="M144.809 240.472C145.631 240.472 146.297 239.782 146.297 238.93C146.297 238.078 145.631 237.387 144.809 237.387C143.987 237.387 143.321 238.078 143.321 238.93C143.321 239.782 143.987 240.472 144.809 240.472Z" fill="#020202"/>
<path d="M123.126 246.643C124.105 246.643 124.899 245.82 124.899 244.805C124.899 243.79 124.105 242.967 123.126 242.967C122.147 242.967 121.354 243.79 121.354 244.805C121.354 245.82 122.147 246.643 123.126 246.643Z" fill="#020202"/>
<path d="M101.84 255.176C103.142 255.176 104.198 254.081 104.198 252.731C104.198 251.38 103.142 250.286 101.84 250.286C100.537 250.286 99.4814 251.38 99.4814 252.731C99.4814 254.081 100.537 255.176 101.84 255.176Z" fill="#020202"/>
<path d="M81.4702 267.598C84.241 267.598 86.4872 265.269 86.4872 262.396C86.4872 259.523 84.241 257.194 81.4702 257.194C78.6993 257.194 76.4531 259.523 76.4531 262.396C76.4531 265.269 78.6993 267.598 81.4702 267.598Z" fill="#020202"/>
<path d="M63.6179 279.971C65.2961 279.971 66.6566 278.561 66.6566 276.821C66.6566 275.081 65.2961 273.67 63.6179 273.67C61.9397 273.67 60.5791 275.081 60.5791 276.821C60.5791 278.561 61.9397 279.971 63.6179 279.971Z" fill="#020202"/>
<path d="M45.781 293.592C47.0397 293.592 48.06 292.534 48.06 291.229C48.06 289.924 47.0397 288.866 45.781 288.866C44.5223 288.866 43.502 289.924 43.502 291.229C43.502 292.534 44.5223 293.592 45.781 293.592Z" fill="#020202"/>
<path d="M31.8228 311.741C33.0727 311.741 34.086 310.691 34.086 309.395C34.086 308.099 33.0727 307.048 31.8228 307.048C30.5728 307.048 29.5596 308.099 29.5596 309.395C29.5596 310.691 30.5728 311.741 31.8228 311.741Z" fill="#020202"/>
<path d="M19.2562 331.007C20.3751 331.007 21.2821 330.067 21.2821 328.906C21.2821 327.746 20.3751 326.806 19.2562 326.806C18.1374 326.806 17.2305 327.746 17.2305 328.906C17.2305 330.067 18.1374 331.007 19.2562 331.007Z" fill="#020202"/>
<path d="M8.01925 355.704C11.5593 355.704 14.429 352.729 14.429 349.058C14.429 345.388 11.5593 342.412 8.01925 342.412C4.47922 342.412 1.60938 345.388 1.60938 349.058C1.60938 352.729 4.47922 355.704 8.01925 355.704Z" fill="#020202"/>
<path d="M1.95782 377.201C4.91222 377.201 7.30724 374.718 7.30724 371.655C7.30724 368.592 4.91222 366.108 1.95782 366.108C-0.99658 366.108 -3.3916 368.592 -3.3916 371.655C-3.3916 374.718 -0.99658 377.201 1.95782 377.201Z" fill="#020202"/>
<path d="M394.127 360.43C395.569 360.43 396.738 359.218 396.738 357.723C396.738 356.227 395.569 355.015 394.127 355.015C392.685 355.015 391.516 356.227 391.516 357.723C391.516 359.218 392.685 360.43 394.127 360.43Z" fill="#020202"/>
<path d="M384.172 340.443C388.324 340.443 391.69 336.953 391.69 332.648C391.69 328.343 388.324 324.853 384.172 324.853C380.02 324.853 376.654 328.343 376.654 332.648C376.654 336.953 380.02 340.443 384.172 340.443Z" fill="#020202"/>
<path d="M374.217 309.821C375.415 309.821 376.385 308.815 376.385 307.573C376.385 306.332 375.415 305.325 374.217 305.325C373.02 305.325 372.049 306.332 372.049 307.573C372.049 308.815 373.02 309.821 374.217 309.821Z" fill="#020202"/>
<path d="M359.514 288.406C361.157 288.406 362.489 287.025 362.489 285.321C362.489 283.617 361.157 282.236 359.514 282.236C357.87 282.236 356.538 283.617 356.538 285.321C356.538 287.025 357.87 288.406 359.514 288.406Z" fill="#020202"/>
<path d="M343.56 268.599C346.095 268.599 348.15 266.469 348.15 263.84C348.15 261.212 346.095 259.081 343.56 259.081C341.026 259.081 338.971 261.212 338.971 263.84C338.971 266.469 341.026 268.599 343.56 268.599Z" fill="#020202"/>
<path d="M325.502 247.332C326.988 247.332 328.193 246.083 328.193 244.542C328.193 243.001 326.988 241.752 325.502 241.752C324.016 241.752 322.812 243.001 322.812 244.542C322.812 246.083 324.016 247.332 325.502 247.332Z" fill="#020202"/>
<path d="M304.643 235.861C308.734 235.861 312.05 232.423 312.05 228.181C312.05 223.94 308.734 220.501 304.643 220.501C300.552 220.501 297.236 223.94 297.236 228.181C297.236 232.423 300.552 235.861 304.643 235.861Z" fill="#020202"/>
<path d="M283.578 215.102C285.116 215.102 286.363 213.809 286.363 212.214C286.363 210.619 285.116 209.326 283.578 209.326C282.039 209.326 280.792 210.619 280.792 212.214C280.792 213.809 282.039 215.102 283.578 215.102Z" fill="#020202"/>
<path d="M259.299 208.719C262.822 208.719 265.677 205.758 265.677 202.106C265.677 198.453 262.822 195.492 259.299 195.492C255.776 195.492 252.921 198.453 252.921 202.106C252.921 205.758 255.776 208.719 259.299 208.719Z" fill="#020202"/>
<path d="M235.037 196.821C237.607 196.821 239.69 194.661 239.69 191.997C239.69 189.332 237.607 187.172 235.037 187.172C232.467 187.172 230.384 189.332 230.384 191.997C230.384 194.661 232.467 196.821 235.037 196.821Z" fill="#020202"/>
<path d="M209.446 192.505C212.295 192.505 214.605 190.11 214.605 187.156C214.605 184.201 212.295 181.806 209.446 181.806C206.596 181.806 204.286 184.201 204.286 187.156C204.286 190.11 206.596 192.505 209.446 192.505Z" fill="#020202"/>
<path d="M183.489 187.566C185.482 187.566 187.098 185.891 187.098 183.825C187.098 181.758 185.482 180.083 183.489 180.083C181.496 180.083 179.881 181.758 179.881 183.825C179.881 185.891 181.496 187.566 183.489 187.566Z" fill="#020202"/>
<path d="M157.549 188.272C159.778 188.272 161.585 186.398 161.585 184.087C161.585 181.776 159.778 179.903 157.549 179.903C155.321 179.903 153.514 181.776 153.514 184.087C153.514 186.398 155.321 188.272 157.549 188.272Z" fill="#020202"/>
<path d="M131.626 193.95C134.983 193.95 137.704 191.128 137.704 187.648C137.704 184.168 134.983 181.347 131.626 181.347C128.27 181.347 125.549 184.168 125.549 187.648C125.549 191.128 128.27 193.95 131.626 193.95Z" fill="#020202"/>
<path d="M106.161 196.247C107.874 196.247 109.263 194.807 109.263 193.031C109.263 191.254 107.874 189.814 106.161 189.814C104.447 189.814 103.059 191.254 103.059 193.031C103.059 194.807 104.447 196.247 106.161 196.247Z" fill="#020202"/>
<path d="M81.9773 205.634C83.1922 205.634 84.1772 204.612 84.1772 203.353C84.1772 202.093 83.1922 201.072 81.9773 201.072C80.7623 201.072 79.7773 202.093 79.7773 203.353C79.7773 204.612 80.7623 205.634 81.9773 205.634Z" fill="#020202"/>
<path d="M57.7788 220.846C61.6072 220.846 64.7109 217.628 64.7109 213.658C64.7109 209.689 61.6072 206.471 57.7788 206.471C53.9503 206.471 50.8467 209.689 50.8467 213.658C50.8467 217.628 53.9503 220.846 57.7788 220.846Z" fill="#020202"/>
<path d="M36.9983 238.142C41.2813 238.142 44.7533 234.542 44.7533 230.101C44.7533 225.66 41.2813 222.06 36.9983 222.06C32.7153 222.06 29.2432 225.66 29.2432 230.101C29.2432 234.542 32.7153 238.142 36.9983 238.142Z" fill="#020202"/>
<path d="M16.2649 253.814C20.0846 253.814 23.1811 250.603 23.1811 246.643C23.1811 242.682 20.0846 239.471 16.2649 239.471C12.4451 239.471 9.34863 242.682 9.34863 246.643C9.34863 250.603 12.4451 253.814 16.2649 253.814Z" fill="#020202"/>
<path d="M-1.39762 273.949C2.65813 273.949 5.94598 270.54 5.94598 266.335C5.94598 262.129 2.65813 258.72 -1.39762 258.72C-5.45336 258.72 -8.74121 262.129 -8.74121 266.335C-8.74121 270.54 -5.45336 273.949 -1.39762 273.949Z" fill="#020202"/>
<path d="M447.335 361.891C448.393 361.891 449.25 361.002 449.25 359.905C449.25 358.809 448.393 357.92 447.335 357.92C446.277 357.92 445.42 358.809 445.42 359.905C445.42 361.002 446.277 361.891 447.335 361.891Z" fill="#020202"/>
<path d="M438.631 337.308C442.154 337.308 445.009 334.348 445.009 330.695C445.009 327.043 442.154 324.082 438.631 324.082C435.108 324.082 432.253 327.043 432.253 330.695C432.253 334.348 435.108 337.308 438.631 337.308Z" fill="#020202"/>
<path d="M427.9 310.494C432.428 310.494 436.099 306.689 436.099 301.994C436.099 297.299 432.428 293.494 427.9 293.494C423.373 293.494 419.702 297.299 419.702 301.994C419.702 306.689 423.373 310.494 427.9 310.494Z" fill="#020202"/>
<path d="M415.365 275.426C415.951 275.426 416.426 274.934 416.426 274.326C416.426 273.719 415.951 273.227 415.365 273.227C414.78 273.227 414.305 273.719 414.305 274.326C414.305 274.934 414.78 275.426 415.365 275.426Z" fill="#020202"/>
<path d="M397.735 257.621C402.027 257.621 405.506 254.014 405.506 249.564C405.506 245.114 402.027 241.506 397.735 241.506C393.443 241.506 389.964 245.114 389.964 249.564C389.964 254.014 393.443 257.621 397.735 257.621Z" fill="#020202"/>
<path d="M380.119 227.41C381.518 227.41 382.651 226.234 382.651 224.784C382.651 223.334 381.518 222.159 380.119 222.159C378.721 222.159 377.587 223.334 377.587 224.784C377.587 226.234 378.721 227.41 380.119 227.41Z" fill="#020202"/>
<path d="M358.453 204.912C358.898 204.912 359.26 204.537 359.26 204.075C359.26 203.612 358.898 203.238 358.453 203.238C358.007 203.238 357.646 203.612 357.646 204.075C357.646 204.537 358.007 204.912 358.453 204.912Z" fill="#020202"/>
<path d="M335.156 190.996C338.346 190.996 340.932 188.314 340.932 185.006C340.932 181.698 338.346 179.016 335.156 179.016C331.965 179.016 329.379 181.698 329.379 185.006C329.379 188.314 331.965 190.996 335.156 190.996Z" fill="#020202"/>
<path d="M311.211 176.227C316.106 176.227 320.074 172.112 320.074 167.037C320.074 161.962 316.106 157.847 311.211 157.847C306.316 157.847 302.348 161.962 302.348 167.037C302.348 172.112 306.316 176.227 311.211 176.227Z" fill="#020202"/>
<path d="M283.894 157.06C284.995 157.06 285.888 156.134 285.888 154.992C285.888 153.85 284.995 152.924 283.894 152.924C282.792 152.924 281.899 153.85 281.899 154.992C281.899 156.134 282.792 157.06 283.894 157.06Z" fill="#020202"/>
<path d="M256.577 147.411C258.963 147.411 260.897 145.405 260.897 142.931C260.897 140.456 258.963 138.451 256.577 138.451C254.19 138.451 252.256 140.456 252.256 142.931C252.256 145.405 254.19 147.411 256.577 147.411Z" fill="#020202"/>
<path d="M227.835 144.375C232.206 144.375 235.749 140.701 235.749 136.17C235.749 131.638 232.206 127.965 227.835 127.965C223.465 127.965 219.922 131.638 219.922 136.17C219.922 140.701 223.465 144.375 227.835 144.375Z" fill="#020202"/>
<path d="M198.461 138.402C202.001 138.402 204.87 135.426 204.87 131.756C204.87 128.085 202.001 125.109 198.461 125.109C194.921 125.109 192.051 128.085 192.051 131.756C192.051 135.426 194.921 138.402 198.461 138.402Z" fill="#020202"/>
<path d="M169.039 133.823C171.408 133.823 173.328 131.832 173.328 129.376C173.328 126.92 171.408 124.929 169.039 124.929C166.67 124.929 164.75 126.92 164.75 129.376C164.75 131.832 166.67 133.823 169.039 133.823Z" fill="#020202"/>
<path d="M139.539 138.549C142.607 138.549 145.094 135.97 145.094 132.789C145.094 129.608 142.607 127.029 139.539 127.029C136.471 127.029 133.983 129.608 133.983 132.789C133.983 135.97 136.471 138.549 139.539 138.549Z" fill="#020202"/>
<path d="M110.037 139.944C112.03 139.944 113.646 138.269 113.646 136.202C113.646 134.136 112.03 132.461 110.037 132.461C108.044 132.461 106.429 134.136 106.429 136.202C106.429 138.269 108.044 139.944 110.037 139.944Z" fill="#020202"/>
<path d="M82.04 155.041C86.8649 155.041 90.7763 150.986 90.7763 145.983C90.7763 140.98 86.8649 136.925 82.04 136.925C77.215 136.925 73.3037 140.98 73.3037 145.983C73.3037 150.986 77.215 155.041 82.04 155.041Z" fill="#020202"/>
<path d="M54.3597 157.929C54.7967 157.929 55.151 157.562 55.151 157.109C55.151 156.656 54.7967 156.288 54.3597 156.288C53.9227 156.288 53.5684 156.656 53.5684 157.109C53.5684 157.562 53.9227 157.929 54.3597 157.929Z" fill="#020202"/>
<path d="M28.0399 176.194C30.9157 176.194 33.247 173.777 33.247 170.795C33.247 167.813 30.9157 165.396 28.0399 165.396C25.1642 165.396 22.833 167.813 22.833 170.795C22.833 173.777 25.1642 176.194 28.0399 176.194Z" fill="#020202"/>
<path d="M4.14135 191.439C5.40003 191.439 6.42039 190.381 6.42039 189.076C6.42039 187.771 5.40003 186.713 4.14135 186.713C2.88267 186.713 1.8623 187.771 1.8623 189.076C1.8623 190.381 2.88267 191.439 4.14135 191.439Z" fill="#020202"/>
<path d="M498.362 364.779C503.283 364.779 507.272 360.643 507.272 355.54C507.272 350.438 503.283 346.301 498.362 346.301C493.441 346.301 489.451 350.438 489.451 355.54C489.451 360.643 493.441 364.779 498.362 364.779Z" fill="#020202"/>
<path d="M492.141 327.905C495.437 327.905 498.108 325.136 498.108 321.719C498.108 318.302 495.437 315.532 492.141 315.532C488.846 315.532 486.175 318.302 486.175 321.719C486.175 325.136 488.846 327.905 492.141 327.905Z" fill="#020202"/>
<path d="M479.433 291.015C479.992 291.015 480.446 290.545 480.446 289.965C480.446 289.385 479.992 288.915 479.433 288.915C478.873 288.915 478.42 289.385 478.42 289.965C478.42 290.545 478.873 291.015 479.433 291.015Z" fill="#020202"/>
<path d="M466.138 262.56C468.358 262.56 470.158 260.694 470.158 258.392C470.158 256.09 468.358 254.224 466.138 254.224C463.918 254.224 462.118 256.09 462.118 258.392C462.118 260.694 463.918 262.56 466.138 262.56Z" fill="#020202"/>
<path d="M448.476 238.076C453.065 238.076 456.785 234.219 456.785 229.461C456.785 224.703 453.065 220.846 448.476 220.846C443.887 220.846 440.167 224.703 440.167 229.461C440.167 234.219 443.887 238.076 448.476 238.076Z" fill="#020202"/>
<path d="M428.629 203.648C429.59 203.648 430.37 202.84 430.37 201.843C430.37 200.846 429.59 200.038 428.629 200.038C427.667 200.038 426.888 200.846 426.888 201.843C426.888 202.84 427.667 203.648 428.629 203.648Z" fill="#020202"/>
<path d="M406.899 181.691C409.888 181.691 412.312 179.178 412.312 176.079C412.312 172.979 409.888 170.467 406.899 170.467C403.91 170.467 401.486 172.979 401.486 176.079C401.486 179.178 403.91 181.691 406.899 181.691Z" fill="#020202"/>
<path d="M381.513 163.345C386.565 163.345 390.661 159.098 390.661 153.86C390.661 148.621 386.565 144.375 381.513 144.375C376.461 144.375 372.365 148.621 372.365 153.86C372.365 159.098 376.461 163.345 381.513 163.345Z" fill="#020202"/>
<path d="M356.047 133.889C357.175 133.889 358.089 132.941 358.089 131.772C358.089 130.603 357.175 129.655 356.047 129.655C354.92 129.655 354.006 130.603 354.006 131.772C354.006 132.941 354.92 133.889 356.047 133.889Z" fill="#020202"/>
<path d="M326.467 122.09C329.666 122.09 332.26 119.401 332.26 116.083C332.26 112.766 329.666 110.077 326.467 110.077C323.268 110.077 320.675 112.766 320.675 116.083C320.675 119.401 323.268 122.09 326.467 122.09Z" fill="#020202"/>
<path d="M296.888 101.364C297.395 101.364 297.806 100.938 297.806 100.412C297.806 99.8862 297.395 99.4601 296.888 99.4601C296.381 99.4601 295.97 99.8862 295.97 100.412C295.97 100.938 296.381 101.364 296.888 101.364Z" fill="#020202"/>
<path d="M265.298 97.737C269.284 97.737 272.515 94.3868 272.515 90.254C272.515 86.1213 269.284 82.771 265.298 82.771C261.312 82.771 258.081 86.1213 258.081 90.254C258.081 94.3868 261.312 97.737 265.298 97.737Z" fill="#020202"/>
<path d="M233.106 91.5832C238.342 91.5832 242.586 87.1824 242.586 81.7536C242.586 76.3248 238.342 71.924 233.106 71.924C227.87 71.924 223.626 76.3248 223.626 81.7536C223.626 87.1824 227.87 91.5832 233.106 91.5832Z" fill="#020202"/>
<path d="M200.361 85.6429C204.758 85.6429 208.322 81.9473 208.322 77.3886C208.322 72.8298 204.758 69.1343 200.361 69.1343C195.965 69.1343 192.4 72.8298 192.4 77.3886C192.4 81.9473 195.965 85.6429 200.361 85.6429Z" fill="#020202"/>
<path d="M167.157 85.6592C172.121 85.6592 176.146 81.4861 176.146 76.3383C176.146 71.1905 172.121 67.0173 167.157 67.0173C162.192 67.0173 158.167 71.1905 158.167 76.3383C158.167 81.4861 162.192 85.6592 167.157 85.6592Z" fill="#020202"/>
<path d="M134.158 82.1474C136.414 82.1474 138.242 80.2519 138.242 77.9136C138.242 75.5753 136.414 73.6798 134.158 73.6798C131.903 73.6798 130.075 75.5753 130.075 77.9136C130.075 80.2519 131.903 82.1474 134.158 82.1474Z" fill="#020202"/>
<path d="M101.523 88.3176C103.621 88.3176 105.321 86.5543 105.321 84.3792C105.321 82.2041 103.621 80.4408 101.523 80.4408C99.4252 80.4408 97.7246 82.2041 97.7246 84.3792C97.7246 86.5543 99.4252 88.3176 101.523 88.3176Z" fill="#020202"/>
<path d="M69.1893 97.6222C72.2748 97.6222 74.7762 95.0287 74.7762 91.8294C74.7762 88.6302 72.2748 86.0366 69.1893 86.0366C66.1038 86.0366 63.6025 88.6302 63.6025 91.8294C63.6025 95.0287 66.1038 97.6222 69.1893 97.6222Z" fill="#020202"/>
<path d="M38.7548 109.421C40.7827 109.421 42.4266 107.716 42.4266 105.614C42.4266 103.511 40.7827 101.807 38.7548 101.807C36.7269 101.807 35.083 103.511 35.083 105.614C35.083 107.716 36.7269 109.421 38.7548 109.421Z" fill="#020202"/>
<path d="M8.30471 129.409C13.6366 129.409 17.9589 124.927 17.9589 119.398C17.9589 113.87 13.6366 109.388 8.30471 109.388C2.97281 109.388 -1.34961 113.87 -1.34961 119.398C-1.34961 124.927 2.97281 129.409 8.30471 129.409Z" fill="#020202"/>
<path d="M554.039 384.307C559.808 384.307 564.485 379.458 564.485 373.476C564.485 367.495 559.808 362.646 554.039 362.646C548.27 362.646 543.594 367.495 543.594 373.476C543.594 379.458 548.27 384.307 554.039 384.307Z" fill="#020202"/>
<path d="M547.519 342.494C550.989 342.494 553.802 339.577 553.802 335.979C553.802 332.381 550.989 329.464 547.519 329.464C544.048 329.464 541.235 332.381 541.235 335.979C541.235 339.577 544.048 342.494 547.519 342.494Z" fill="#020202"/>
<path d="M539.226 306.49C543.203 306.49 546.427 303.147 546.427 299.024C546.427 294.9 543.203 291.557 539.226 291.557C535.248 291.557 532.024 294.9 532.024 299.024C532.024 303.147 535.248 306.49 539.226 306.49Z" fill="#020202"/>
<path d="M524.87 266.909C526.444 266.909 527.719 265.586 527.719 263.955C527.719 262.324 526.444 261.001 524.87 261.001C523.297 261.001 522.021 262.324 522.021 263.955C522.021 265.586 523.297 266.909 524.87 266.909Z" fill="#020202"/>
<path d="M510.516 230.725C511.504 230.725 512.304 229.894 512.304 228.87C512.304 227.846 511.504 227.016 510.516 227.016C509.528 227.016 508.728 227.846 508.728 228.87C508.728 229.894 509.528 230.725 510.516 230.725Z" fill="#020202"/>
<path d="M489.783 204.518C493.498 204.518 496.509 201.395 496.509 197.543C496.509 193.691 493.498 190.569 489.783 190.569C486.068 190.569 483.057 193.691 483.057 197.543C483.057 201.395 486.068 204.518 489.783 204.518Z" fill="#020202"/>
<path d="M468.132 168.908C469.277 168.908 470.205 167.945 470.205 166.758C470.205 165.571 469.277 164.608 468.132 164.608C466.987 164.608 466.059 165.571 466.059 166.758C466.059 167.945 466.987 168.908 468.132 168.908Z" fill="#020202"/>
<path d="M443.695 149.659C449.578 149.659 454.347 144.714 454.347 138.615C454.347 132.515 449.578 127.571 443.695 127.571C437.813 127.571 433.044 132.515 433.044 138.615C433.044 144.714 437.813 149.659 443.695 149.659Z" fill="#020202"/>
<path d="M415.873 119.579C418.984 119.579 421.507 116.963 421.507 113.737C421.507 110.51 418.984 107.895 415.873 107.895C412.761 107.895 410.238 110.51 410.238 113.737C410.238 116.963 412.761 119.579 415.873 119.579Z" fill="#020202"/>
<path d="M387.939 94.1267C390.657 94.1267 392.861 91.8418 392.861 89.0232C392.861 86.2046 390.657 83.9197 387.939 83.9197C385.22 83.9197 383.017 86.2046 383.017 89.0232C383.017 91.8418 385.22 94.1267 387.939 94.1267Z" fill="#020202"/>
<path d="M355.383 80.8838C360.47 80.8838 364.594 76.6078 364.594 71.3331C364.594 66.0584 360.47 61.7825 355.383 61.7825C350.296 61.7825 346.172 66.0584 346.172 71.3331C346.172 76.6078 350.296 80.8838 355.383 80.8838Z" fill="#020202"/>
<path d="M322.843 60.4696C326.488 60.4696 329.443 57.4059 329.443 53.6266C329.443 49.8473 326.488 46.7836 322.843 46.7836C319.198 46.7836 316.243 49.8473 316.243 53.6266C316.243 57.4059 319.198 60.4696 322.843 60.4696Z" fill="#020202"/>
<path d="M288.294 45.1589C290.374 45.1589 292.061 43.4103 292.061 41.2533C292.061 39.0963 290.374 37.3477 288.294 37.3477C286.214 37.3477 284.527 39.0963 284.527 41.2533C284.527 43.4103 286.214 45.1589 288.294 45.1589Z" fill="#020202"/>
<path d="M252.778 33.5898C253.914 33.5898 254.836 32.6347 254.836 31.4565C254.836 30.2783 253.914 29.3232 252.778 29.3232C251.642 29.3232 250.721 30.2783 250.721 31.4565C250.721 32.6347 251.642 33.5898 252.778 33.5898Z" fill="#020202"/>
<path d="M216.836 29.5037C219.432 29.5037 221.537 27.3216 221.537 24.6299C221.537 21.9382 219.432 19.7561 216.836 19.7561C214.24 19.7561 212.136 21.9382 212.136 24.6299C212.136 27.3216 214.24 29.5037 216.836 29.5037Z" fill="#020202"/>
<path d="M180.118 26.632C182.015 26.632 183.552 25.0377 183.552 23.071C183.552 21.1043 182.015 19.51 180.118 19.51C178.221 19.51 176.684 21.1043 176.684 23.071C176.684 25.0377 178.221 26.632 180.118 26.632Z" fill="#020202"/>
<path d="M143.432 32.9991C149.297 32.9991 154.052 28.0692 154.052 21.9879C154.052 15.9066 149.297 10.9767 143.432 10.9767C137.567 10.9767 132.812 15.9066 132.812 21.9879C132.812 28.0692 137.567 32.9991 143.432 32.9991Z" fill="#020202"/>
<path d="M107.268 30.9151C108.422 30.9151 109.357 29.9452 109.357 28.7489C109.357 27.5526 108.422 26.5828 107.268 26.5828C106.114 26.5828 105.179 27.5526 105.179 28.7489C105.179 29.9452 106.114 30.9151 107.268 30.9151Z" fill="#020202"/>
<path d="M71.0883 46.7507C77.0758 46.7507 81.9295 41.7179 81.9295 35.5097C81.9295 29.3015 77.0758 24.2688 71.0883 24.2688C65.1008 24.2688 60.2471 29.3015 60.2471 35.5097C60.2471 41.7179 65.1008 46.7507 71.0883 46.7507Z" fill="#020202"/>
<path d="M36.6653 58.0901C41.8835 58.0901 46.1138 53.7039 46.1138 48.2933C46.1138 42.8827 41.8835 38.4965 36.6653 38.4965C31.447 38.4965 27.2168 42.8827 27.2168 48.2933C27.2168 53.7039 31.447 58.0901 36.6653 58.0901Z" fill="#020202"/>
<path d="M2.84401 65.3434C3.9978 65.3434 4.93315 64.3735 4.93315 63.1772C4.93315 61.9809 3.9978 61.0111 2.84401 61.0111C1.69023 61.0111 0.754883 61.9809 0.754883 63.1772C0.754883 64.3735 1.69023 65.3434 2.84401 65.3434Z" fill="#020202"/>
<path d="M606.663 371.884C607.458 371.884 608.103 371.216 608.103 370.391C608.103 369.566 607.458 368.898 606.663 368.898C605.868 368.898 605.223 369.566 605.223 370.391C605.223 371.216 605.868 371.884 606.663 371.884Z" fill="#020202"/>
<path d="M599.699 339.359C604.987 339.359 609.274 334.915 609.274 329.431C609.274 323.948 604.987 319.503 599.699 319.503C594.411 319.503 590.124 323.948 590.124 329.431C590.124 334.915 594.411 339.359 599.699 339.359Z" fill="#020202"/>
<path d="M590.139 299.811C595.97 299.811 600.696 294.911 600.696 288.866C600.696 282.821 595.97 277.92 590.139 277.92C584.309 277.92 579.583 282.821 579.583 288.866C579.583 294.911 584.309 299.811 590.139 299.811Z" fill="#020202"/>
<path d="M576.434 256.882C580.201 256.882 583.255 253.716 583.255 249.81C583.255 245.903 580.201 242.737 576.434 242.737C572.666 242.737 569.612 245.903 569.612 249.81C569.612 253.716 572.666 256.882 576.434 256.882Z" fill="#020202"/>
<path d="M559.437 215.512C561.342 215.512 562.887 213.911 562.887 211.935C562.887 209.959 561.342 208.358 559.437 208.358C557.531 208.358 555.986 209.959 555.986 211.935C555.986 213.911 557.531 215.512 559.437 215.512Z" fill="#020202"/>
<path d="M539.527 180.017C541.738 180.017 543.531 178.159 543.531 175.866C543.531 173.573 541.738 171.714 539.527 171.714C537.315 171.714 535.522 173.573 535.522 175.866C535.522 178.159 537.315 180.017 539.527 180.017Z" fill="#020202"/>
<path d="M515.596 143.817C516.418 143.817 517.084 143.126 517.084 142.274C517.084 141.422 516.418 140.731 515.596 140.731C514.774 140.731 514.108 141.422 514.108 142.274C514.108 143.126 514.774 143.817 515.596 143.817Z" fill="#020202"/>
<path d="M490.384 119.119C495.305 119.119 499.294 114.983 499.294 109.881C499.294 104.778 495.305 100.642 490.384 100.642C485.463 100.642 481.474 104.778 481.474 109.881C481.474 114.983 485.463 119.119 490.384 119.119Z" fill="#020202"/>
<path d="M460.456 89.6961C464.599 89.6961 467.958 86.2136 467.958 81.9177C467.958 77.6218 464.599 74.1393 460.456 74.1393C456.313 74.1393 452.954 77.6218 452.954 81.9177C452.954 86.2136 456.313 89.6961 460.456 89.6961Z" fill="#020202"/>
<path d="M430.496 55.4481C431.257 55.4481 431.873 54.8089 431.873 54.0204C431.873 53.232 431.257 52.5928 430.496 52.5928C429.736 52.5928 429.119 53.232 429.119 54.0204C429.119 54.8089 429.736 55.4481 430.496 55.4481Z" fill="#020202"/>
<path d="M395.805 34.7877C396.862 34.7877 397.72 33.8988 397.72 32.8021C397.72 31.7055 396.862 30.8165 395.805 30.8165C394.747 30.8165 393.89 31.7055 393.89 32.8021C393.89 33.8988 394.747 34.7877 395.805 34.7877Z" fill="#020202"/>
<path d="M361.112 14.8495C362.852 14.8495 364.262 13.3874 364.262 11.5839C364.262 9.78034 362.852 8.31824 361.112 8.31824C359.373 8.31824 357.963 9.78034 357.963 11.5839C357.963 13.3874 359.373 14.8495 361.112 14.8495Z" fill="#020202"/>
<path d="M9.28507 7.12029C12.6678 7.12029 15.41 4.27694 15.41 0.769532C15.41 -2.73787 12.6678 -5.58118 9.28507 -5.58118C5.90237 -5.58118 3.16016 -2.73787 3.16016 0.769532C3.16016 4.27694 5.90237 7.12029 9.28507 7.12029Z" fill="#020202"/>
<path d="M654.84 342.806C657.366 342.806 659.413 340.683 659.413 338.064C659.413 335.444 657.366 333.321 654.84 333.321C652.313 333.321 650.266 335.444 650.266 338.064C650.266 340.683 652.313 342.806 654.84 342.806Z" fill="#020202"/>
<path d="M644.71 305.49C650.899 305.49 655.915 300.288 655.915 293.871C655.915 287.455 650.899 282.253 644.71 282.253C638.522 282.253 633.505 287.455 633.505 293.871C633.505 300.288 638.522 305.49 644.71 305.49Z" fill="#020202"/>
<path d="M633.425 253.24C635.104 253.24 636.464 251.829 636.464 250.089C636.464 248.349 635.104 246.938 633.425 246.938C631.747 246.938 630.387 248.349 630.387 250.089C630.387 251.829 631.747 253.24 633.425 253.24Z" fill="#020202"/>
<path d="M615.178 213.084C617.468 213.084 619.324 211.159 619.324 208.785C619.324 206.41 617.468 204.485 615.178 204.485C612.888 204.485 611.031 206.41 611.031 208.785C611.031 211.159 612.888 213.084 615.178 213.084Z" fill="#020202"/>
<path d="M596.93 171.813C599.229 171.813 601.092 169.88 601.092 167.497C601.092 165.113 599.229 163.181 596.93 163.181C594.631 163.181 592.768 165.113 592.768 167.497C592.768 169.88 594.631 171.813 596.93 171.813Z" fill="#020202"/>
<path d="M571.544 132.117C572.392 132.117 573.079 131.404 573.079 130.525C573.079 129.646 572.392 128.933 571.544 128.933C570.696 128.933 570.009 129.646 570.009 130.525C570.009 131.404 570.696 132.117 571.544 132.117Z" fill="#020202"/>
<path d="M545.715 105.27C551.807 105.27 556.746 100.149 556.746 93.8317C556.746 87.5148 551.807 82.3939 545.715 82.3939C539.622 82.3939 534.684 87.5148 534.684 93.8317C534.684 100.149 539.622 105.27 545.715 105.27Z" fill="#020202"/>
<path d="M515.485 70.71C520.529 70.71 524.617 66.4707 524.617 61.2413C524.617 56.0119 520.529 51.7727 515.485 51.7727C510.442 51.7727 506.354 56.0119 506.354 61.2413C506.354 66.4707 510.442 70.71 515.485 70.71Z" fill="#020202"/>
<path d="M483.12 33.4754C484.641 33.4754 485.874 32.197 485.874 30.62C485.874 29.043 484.641 27.7646 483.12 27.7646C481.599 27.7646 480.366 29.043 480.366 30.62C480.366 32.197 481.599 33.4754 483.12 33.4754Z" fill="#020202"/>
<path d="M448.618 7.31763C450.934 7.31763 452.812 5.37067 452.812 2.96896C452.812 0.56725 450.934 -1.37976 448.618 -1.37976C446.302 -1.37976 444.424 0.56725 444.424 2.96896C444.424 5.37067 446.302 7.31763 448.618 7.31763Z" fill="#020202"/>
<path d="M676.522 233.908C684.459 233.908 690.893 227.237 690.893 219.008C690.893 210.779 684.459 204.107 676.522 204.107C668.585 204.107 662.151 210.779 662.151 219.008C662.151 227.237 668.585 233.908 676.522 233.908Z" fill="#020202"/>
<path d="M657.008 184.448C662.427 184.448 666.82 179.893 666.82 174.274C666.82 168.655 662.427 164.1 657.008 164.1C651.589 164.1 647.195 168.655 647.195 174.274C647.195 179.893 651.589 184.448 657.008 184.448Z" fill="#020202"/>
<path d="M635.515 139.271C640.06 139.271 643.745 135.451 643.745 130.738C643.745 126.025 640.06 122.205 635.515 122.205C630.97 122.205 627.285 126.025 627.285 130.738C627.285 135.451 630.97 139.271 635.515 139.271Z" fill="#020202"/>
<path d="M607.819 104.301C614.942 104.301 620.717 98.3134 620.717 90.927C620.717 83.5406 614.942 77.5527 607.819 77.5527C600.695 77.5527 594.92 83.5406 594.92 90.927C594.92 98.3134 600.695 104.301 607.819 104.301Z" fill="#020202"/>
<path d="M580.106 58.8616C584.223 58.8616 587.56 55.4011 587.56 51.1323C587.56 46.8636 584.223 43.4032 580.106 43.4032C575.989 43.4032 572.651 46.8636 572.651 51.1323C572.651 55.4011 575.989 58.8616 580.106 58.8616Z" fill="#020202"/>
<path d="M545.857 26.1397C550.542 26.1397 554.34 22.2017 554.34 17.3439C554.34 12.4861 550.542 8.5481 545.857 8.5481C541.172 8.5481 537.374 12.4861 537.374 17.3439C537.374 22.2017 541.172 26.1397 545.857 26.1397Z" fill="#020202"/>
<path d="M648.16 64.3754C652.6 64.3754 656.2 60.6432 656.2 56.0391C656.2 51.4351 652.6 47.7028 648.16 47.7028C643.72 47.7028 640.12 51.4351 640.12 56.0391C640.12 60.6432 643.72 64.3754 648.16 64.3754Z" fill="#020202"/>
<path d="M617.995 25.5491C624.376 25.5491 629.548 20.1858 629.548 13.5697C629.548 6.95372 624.376 1.59033 617.995 1.59033C611.614 1.59033 606.441 6.95372 606.441 13.5697C606.441 20.1858 611.614 25.5491 617.995 25.5491Z" fill="#020202"/>
</g>
</g>
</g>
</svg>
